<mxfile host="65bd71144e">
    <diagram id="xREIJkwpqBUCfDJpb4nf" name="Page-2">
        <mxGraphModel dx="10473" dy="6520" grid="1" gridSize="10" guides="1" tooltips="1" connect="1" arrows="1" fold="1" page="1" pageScale="1" pageWidth="5000" pageHeight="4000" math="0" shadow="0">
            <root>
                <mxCell id="0"/>
                <mxCell id="1" parent="0"/>
                <mxCell id="gTam6Y7-pYcrQcYwVM2L-1" value="" style="rounded=1;whiteSpace=wrap;html=1;strokeWidth=9;fontSize=60;" vertex="1" parent="1">
                    <mxGeometry x="1460" y="500" width="940" height="2610" as="geometry"/>
                </mxCell>
                <mxCell id="gTam6Y7-pYcrQcYwVM2L-2" value="BU1" style="rounded=1;whiteSpace=wrap;html=1;strokeWidth=9;fontSize=60;" vertex="1" parent="1">
                    <mxGeometry x="1750" y="710" width="270" height="220" as="geometry"/>
                </mxCell>
                <mxCell id="gTam6Y7-pYcrQcYwVM2L-3" value="BU2" style="rounded=1;whiteSpace=wrap;html=1;strokeWidth=9;fontSize=60;" vertex="1" parent="1">
                    <mxGeometry x="1750" y="1020" width="270" height="220" as="geometry"/>
                </mxCell>
                <mxCell id="gTam6Y7-pYcrQcYwVM2L-4" value="BU3" style="rounded=1;whiteSpace=wrap;html=1;strokeWidth=9;fontSize=60;" vertex="1" parent="1">
                    <mxGeometry x="1750" y="1360" width="270" height="220" as="geometry"/>
                </mxCell>
                <mxCell id="gTam6Y7-pYcrQcYwVM2L-5" value="BU127" style="rounded=1;whiteSpace=wrap;html=1;strokeWidth=9;fontSize=60;" vertex="1" parent="1">
                    <mxGeometry x="1750" y="2340" width="270" height="220" as="geometry"/>
                </mxCell>
                <mxCell id="gTam6Y7-pYcrQcYwVM2L-6" value="BU128" style="rounded=1;whiteSpace=wrap;html=1;strokeWidth=9;fontSize=60;" vertex="1" parent="1">
                    <mxGeometry x="1750" y="2680" width="270" height="220" as="geometry"/>
                </mxCell>
                <mxCell id="gTam6Y7-pYcrQcYwVM2L-7" value=".&lt;br&gt;.&lt;br&gt;.&lt;br&gt;.&lt;br&gt;.&lt;br&gt;.&lt;br&gt;.&lt;br&gt;" style="text;html=1;align=center;verticalAlign=middle;resizable=0;points=[];autosize=1;strokeColor=none;fillColor=none;fontSize=60;" vertex="1" parent="1">
                    <mxGeometry x="1865" y="1650" width="40" height="520" as="geometry"/>
                </mxCell>
                <mxCell id="gTam6Y7-pYcrQcYwVM2L-8" value="" style="rounded=1;whiteSpace=wrap;html=1;strokeWidth=9;fontSize=60;" vertex="1" parent="1">
                    <mxGeometry x="3210" y="480" width="940" height="2610" as="geometry"/>
                </mxCell>
                <mxCell id="gTam6Y7-pYcrQcYwVM2L-9" value="iBU1" style="rounded=1;whiteSpace=wrap;html=1;strokeWidth=9;fontSize=60;" vertex="1" parent="1">
                    <mxGeometry x="3500" y="690" width="270" height="220" as="geometry"/>
                </mxCell>
                <mxCell id="gTam6Y7-pYcrQcYwVM2L-10" value="iBU2" style="rounded=1;whiteSpace=wrap;html=1;strokeWidth=9;fontSize=60;" vertex="1" parent="1">
                    <mxGeometry x="3500" y="1000" width="270" height="220" as="geometry"/>
                </mxCell>
                <mxCell id="gTam6Y7-pYcrQcYwVM2L-11" value="iBU3" style="rounded=1;whiteSpace=wrap;html=1;strokeWidth=9;fontSize=60;" vertex="1" parent="1">
                    <mxGeometry x="3500" y="1340" width="270" height="220" as="geometry"/>
                </mxCell>
                <mxCell id="gTam6Y7-pYcrQcYwVM2L-12" value="iBU127" style="rounded=1;whiteSpace=wrap;html=1;strokeWidth=9;fontSize=60;" vertex="1" parent="1">
                    <mxGeometry x="3500" y="2320" width="270" height="220" as="geometry"/>
                </mxCell>
                <mxCell id="gTam6Y7-pYcrQcYwVM2L-13" value="iBU128" style="rounded=1;whiteSpace=wrap;html=1;strokeWidth=9;fontSize=60;" vertex="1" parent="1">
                    <mxGeometry x="3500" y="2660" width="270" height="220" as="geometry"/>
                </mxCell>
                <mxCell id="gTam6Y7-pYcrQcYwVM2L-14" value=".&lt;br&gt;.&lt;br&gt;.&lt;br&gt;.&lt;br&gt;.&lt;br&gt;.&lt;br&gt;.&lt;br&gt;" style="text;html=1;align=center;verticalAlign=middle;resizable=0;points=[];autosize=1;strokeColor=none;fillColor=none;fontSize=60;" vertex="1" parent="1">
                    <mxGeometry x="3615" y="1630" width="40" height="520" as="geometry"/>
                </mxCell>
                <mxCell id="gTam6Y7-pYcrQcYwVM2L-15" value="TEST DATA" style="rounded=1;whiteSpace=wrap;html=1;strokeWidth=9;fontSize=60;" vertex="1" parent="1">
                    <mxGeometry x="90" y="500" width="560" height="2630" as="geometry"/>
                </mxCell>
                <mxCell id="gTam6Y7-pYcrQcYwVM2L-16" value="256 DATA 32 BIT" style="shape=singleArrow;whiteSpace=wrap;html=1;arrowWidth=0.4;arrowSize=0.4;strokeWidth=9;fontSize=60;verticalAlign=middle;" vertex="1" parent="1">
                    <mxGeometry x="660" y="1510" width="800" height="760" as="geometry"/>
                </mxCell>
                <mxCell id="gTam6Y7-pYcrQcYwVM2L-17" value="256 CIPHER 32 BIT" style="shape=singleArrow;whiteSpace=wrap;html=1;arrowWidth=0.4;arrowSize=0.4;strokeWidth=9;fontSize=60;verticalAlign=middle;" vertex="1" parent="1">
                    <mxGeometry x="2410" y="1510" width="800" height="760" as="geometry"/>
                </mxCell>
                <mxCell id="gTam6Y7-pYcrQcYwVM2L-18" value="256 DATA 32 BIT" style="shape=singleArrow;whiteSpace=wrap;html=1;arrowWidth=0.4;arrowSize=0.4;strokeWidth=9;fontSize=60;verticalAlign=middle;" vertex="1" parent="1">
                    <mxGeometry x="4150" y="1540" width="800" height="760" as="geometry"/>
                </mxCell>
                <mxCell id="gTam6Y7-pYcrQcYwVM2L-20" style="edgeStyle=none;html=1;exitX=1;exitY=0.5;exitDx=0;exitDy=0;entryX=0.5;entryY=1;entryDx=0;entryDy=0;strokeWidth=9;fontSize=60;" edge="1" parent="1" source="gTam6Y7-pYcrQcYwVM2L-19" target="gTam6Y7-pYcrQcYwVM2L-1">
                    <mxGeometry relative="1" as="geometry">
                        <Array as="points">
                            <mxPoint x="1930" y="3345"/>
                        </Array>
                    </mxGeometry>
                </mxCell>
                <mxCell id="gTam6Y7-pYcrQcYwVM2L-21" style="edgeStyle=none;html=1;exitX=1;exitY=0.5;exitDx=0;exitDy=0;entryX=0.5;entryY=1;entryDx=0;entryDy=0;strokeWidth=9;fontSize=60;" edge="1" parent="1" source="gTam6Y7-pYcrQcYwVM2L-19" target="gTam6Y7-pYcrQcYwVM2L-8">
                    <mxGeometry relative="1" as="geometry">
                        <Array as="points">
                            <mxPoint x="3680" y="3345"/>
                        </Array>
                    </mxGeometry>
                </mxCell>
                <mxCell id="gTam6Y7-pYcrQcYwVM2L-19" value="ZETA" style="rounded=1;whiteSpace=wrap;html=1;strokeWidth=9;fontSize=60;" vertex="1" parent="1">
                    <mxGeometry x="140" y="3230" width="380" height="230" as="geometry"/>
                </mxCell>
            </root>
        </mxGraphModel>
    </diagram>
    <diagram id="3tA4S_4paJFn2hNJmqcX" name="Page-1">
        <mxGraphModel dx="12855" dy="1955" grid="1" gridSize="10" guides="1" tooltips="1" connect="1" arrows="1" fold="1" page="1" pageScale="1" pageWidth="5000" pageHeight="4000" math="0" shadow="0">
            <root>
                <mxCell id="0"/>
                <mxCell id="1" parent="0"/>
                <mxCell id="60" value="dili_test" style="rounded=1;whiteSpace=wrap;html=1;fontSize=90;strokeWidth=9;verticalAlign=bottom;" vertex="1" parent="1">
                    <mxGeometry x="-170" y="390" width="5440" height="1700" as="geometry"/>
                </mxCell>
                <mxCell id="2" value="dili_ntt_bu" style="rounded=1;whiteSpace=wrap;html=1;strokeWidth=9;fontSize=60;verticalAlign=bottom;" parent="1" vertex="1">
                    <mxGeometry x="425" y="725" width="1740" height="850" as="geometry"/>
                </mxCell>
                <mxCell id="3" style="edgeStyle=none;html=1;exitX=1;exitY=0.5;exitDx=0;exitDy=0;strokeWidth=9;fontSize=60;" parent="1" source="4" target="20" edge="1">
                    <mxGeometry relative="1" as="geometry"/>
                </mxCell>
                <mxCell id="4" value="" style="shape=sumEllipse;perimeter=ellipsePerimeter;whiteSpace=wrap;html=1;backgroundOutline=1;strokeWidth=9;fontSize=60;" parent="1" vertex="1">
                    <mxGeometry x="755" y="1240" width="80" height="80" as="geometry"/>
                </mxCell>
                <mxCell id="5" value="" style="shape=orEllipse;perimeter=ellipsePerimeter;whiteSpace=wrap;html=1;backgroundOutline=1;strokeWidth=9;fontSize=60;" parent="1" vertex="1">
                    <mxGeometry x="2005" y="780" width="80" height="80" as="geometry"/>
                </mxCell>
                <mxCell id="6" value="" style="shape=lineEllipse;perimeter=ellipsePerimeter;whiteSpace=wrap;html=1;backgroundOutline=1;strokeWidth=9;fontSize=60;" parent="1" vertex="1">
                    <mxGeometry x="1995" y="1240" width="80" height="80" as="geometry"/>
                </mxCell>
                <mxCell id="7" style="html=1;entryX=0;entryY=0.5;entryDx=0;entryDy=0;strokeWidth=9;fontSize=60;" parent="1" source="9" target="5" edge="1">
                    <mxGeometry relative="1" as="geometry"/>
                </mxCell>
                <mxCell id="8" style="edgeStyle=none;html=1;entryX=0;entryY=0;entryDx=0;entryDy=0;strokeWidth=9;fontSize=60;" parent="1" source="9" target="6" edge="1">
                    <mxGeometry relative="1" as="geometry">
                        <Array as="points">
                            <mxPoint x="1635" y="825"/>
                        </Array>
                    </mxGeometry>
                </mxCell>
                <mxCell id="9" value="a_even_i" style="text;html=1;align=center;verticalAlign=middle;resizable=0;points=[];autosize=1;strokeColor=none;fillColor=none;fontSize=60;strokeWidth=9;" parent="1" vertex="1">
                    <mxGeometry x="60" y="780" width="270" height="90" as="geometry"/>
                </mxCell>
                <mxCell id="10" style="edgeStyle=none;html=1;strokeWidth=9;fontSize=60;" parent="1" source="11" target="4" edge="1">
                    <mxGeometry relative="1" as="geometry"/>
                </mxCell>
                <mxCell id="11" value="a_odd_i" style="text;html=1;align=center;verticalAlign=middle;resizable=0;points=[];autosize=1;strokeColor=none;fillColor=none;fontSize=60;strokeWidth=9;" parent="1" vertex="1">
                    <mxGeometry x="85" y="1235" width="240" height="90" as="geometry"/>
                </mxCell>
                <mxCell id="12" style="edgeStyle=orthogonalEdgeStyle;html=1;entryX=0.5;entryY=1;entryDx=0;entryDy=0;strokeWidth=9;fontSize=60;" parent="1" source="13" target="4" edge="1">
                    <mxGeometry relative="1" as="geometry"/>
                </mxCell>
                <mxCell id="13" value="zeta_i" style="text;html=1;align=center;verticalAlign=middle;resizable=0;points=[];autosize=1;strokeColor=none;fillColor=none;fontSize=60;strokeWidth=9;" parent="1" vertex="1">
                    <mxGeometry x="105" y="1425" width="180" height="90" as="geometry"/>
                </mxCell>
                <mxCell id="50" style="edgeStyle=none;html=1;strokeWidth=9;fontSize=60;" edge="1" parent="1" source="14" target="25">
                    <mxGeometry relative="1" as="geometry"/>
                </mxCell>
                <mxCell id="14" value="a_even_o" style="text;html=1;align=center;verticalAlign=middle;resizable=0;points=[];autosize=1;strokeColor=none;fillColor=none;fontSize=60;strokeWidth=9;" parent="1" vertex="1">
                    <mxGeometry x="2305" y="770" width="290" height="90" as="geometry"/>
                </mxCell>
                <mxCell id="15" style="edgeStyle=none;html=1;exitX=1;exitY=0.5;exitDx=0;exitDy=0;strokeWidth=9;fontSize=60;endArrow=classicThin;endFill=0;" parent="1" source="5" target="14" edge="1">
                    <mxGeometry relative="1" as="geometry">
                        <mxPoint x="2465" y="820" as="targetPoint"/>
                    </mxGeometry>
                </mxCell>
                <mxCell id="51" style="edgeStyle=none;html=1;strokeWidth=9;fontSize=60;" edge="1" parent="1" source="16" target="27">
                    <mxGeometry relative="1" as="geometry">
                        <Array as="points">
                            <mxPoint x="2555" y="1100"/>
                        </Array>
                    </mxGeometry>
                </mxCell>
                <mxCell id="69" style="edgeStyle=none;html=1;strokeWidth=9;fontSize=60;" edge="1" parent="1" source="16" target="71">
                    <mxGeometry relative="1" as="geometry">
                        <mxPoint x="5500" y="1840" as="targetPoint"/>
                        <Array as="points">
                            <mxPoint x="2555" y="1840"/>
                        </Array>
                    </mxGeometry>
                </mxCell>
                <mxCell id="16" value="a_odd_o" style="text;html=1;align=center;verticalAlign=middle;resizable=0;points=[];autosize=1;strokeColor=none;fillColor=none;fontSize=60;strokeWidth=9;" parent="1" vertex="1">
                    <mxGeometry x="2425" y="1235" width="260" height="90" as="geometry"/>
                </mxCell>
                <mxCell id="17" style="edgeStyle=none;html=1;exitX=1;exitY=0.5;exitDx=0;exitDy=0;strokeWidth=9;fontSize=60;endArrow=classicThin;endFill=0;" parent="1" source="6" target="16" edge="1">
                    <mxGeometry relative="1" as="geometry">
                        <mxPoint x="2445" y="1280" as="targetPoint"/>
                    </mxGeometry>
                </mxCell>
                <mxCell id="18" style="edgeStyle=none;html=1;exitX=1;exitY=0.5;exitDx=0;exitDy=0;entryX=0.5;entryY=1;entryDx=0;entryDy=0;strokeWidth=9;fontSize=60;" parent="1" source="20" target="5" edge="1">
                    <mxGeometry relative="1" as="geometry">
                        <Array as="points">
                            <mxPoint x="1635" y="1280"/>
                        </Array>
                    </mxGeometry>
                </mxCell>
                <mxCell id="19" style="edgeStyle=none;html=1;exitX=1;exitY=0.5;exitDx=0;exitDy=0;entryX=0;entryY=0.5;entryDx=0;entryDy=0;strokeWidth=9;fontSize=60;" parent="1" source="20" target="6" edge="1">
                    <mxGeometry relative="1" as="geometry"/>
                </mxCell>
                <mxCell id="20" value="dili_montgomery_reduce" style="rounded=1;whiteSpace=wrap;html=1;strokeWidth=9;fontSize=47;" parent="1" vertex="1">
                    <mxGeometry x="965" y="1187.5" width="540" height="185" as="geometry"/>
                </mxCell>
                <mxCell id="21" value="dili_intt_bu" style="rounded=1;whiteSpace=wrap;html=1;strokeWidth=9;fontSize=60;verticalAlign=bottom;" vertex="1" parent="1">
                    <mxGeometry x="2945" y="617" width="1680" height="830" as="geometry"/>
                </mxCell>
                <mxCell id="22" value="" style="shape=orEllipse;perimeter=ellipsePerimeter;whiteSpace=wrap;html=1;backgroundOutline=1;strokeWidth=9;fontSize=60;" vertex="1" parent="1">
                    <mxGeometry x="3365" y="777" width="80" height="80" as="geometry"/>
                </mxCell>
                <mxCell id="23" value="" style="shape=lineEllipse;perimeter=ellipsePerimeter;whiteSpace=wrap;html=1;backgroundOutline=1;strokeWidth=9;verticalAlign=middle;fontSize=60;" vertex="1" parent="1">
                    <mxGeometry x="3365" y="1057" width="80" height="80" as="geometry"/>
                </mxCell>
                <mxCell id="24" style="html=1;entryX=0;entryY=0.5;entryDx=0;entryDy=0;strokeWidth=9;fontSize=60;" edge="1" parent="1" source="25" target="22">
                    <mxGeometry relative="1" as="geometry"/>
                </mxCell>
                <mxCell id="25" value="a_even_i" style="text;html=1;align=center;verticalAlign=middle;resizable=0;points=[];autosize=1;strokeColor=none;fillColor=none;fontSize=60;strokeWidth=9;" vertex="1" parent="1">
                    <mxGeometry x="2650" y="767" width="270" height="90" as="geometry"/>
                </mxCell>
                <mxCell id="26" style="edgeStyle=none;html=1;entryX=0;entryY=0.5;entryDx=0;entryDy=0;strokeWidth=9;fontSize=60;endArrow=block;endFill=1;" edge="1" parent="1" source="27" target="23">
                    <mxGeometry relative="1" as="geometry"/>
                </mxCell>
                <mxCell id="27" value="a_odd_i" style="text;html=1;align=center;verticalAlign=middle;resizable=0;points=[];autosize=1;strokeColor=none;fillColor=none;fontSize=60;strokeWidth=9;" vertex="1" parent="1">
                    <mxGeometry x="2665" y="1052" width="240" height="90" as="geometry"/>
                </mxCell>
                <mxCell id="28" value="zeta_i" style="text;html=1;align=center;verticalAlign=middle;resizable=0;points=[];autosize=1;strokeColor=none;fillColor=none;fontSize=60;strokeWidth=9;" vertex="1" parent="1">
                    <mxGeometry x="2705" y="1277" width="180" height="90" as="geometry"/>
                </mxCell>
                <mxCell id="29" value="" style="endArrow=classicThin;html=1;strokeWidth=9;fontSize=60;exitX=0.995;exitY=0.509;exitDx=0;exitDy=0;exitPerimeter=0;entryX=0.5;entryY=0;entryDx=0;entryDy=0;endFill=0;" edge="1" parent="1" source="25" target="23">
                    <mxGeometry width="50" height="50" relative="1" as="geometry">
                        <mxPoint x="2725" y="787" as="sourcePoint"/>
                        <mxPoint x="3085" y="817" as="targetPoint"/>
                        <Array as="points">
                            <mxPoint x="3085" y="817"/>
                        </Array>
                    </mxGeometry>
                </mxCell>
                <mxCell id="61" style="edgeStyle=none;html=1;strokeWidth=9;fontSize=90;" edge="1" parent="1" source="30" target="62">
                    <mxGeometry relative="1" as="geometry">
                        <mxPoint x="5580" y="822" as="targetPoint"/>
                    </mxGeometry>
                </mxCell>
                <mxCell id="30" value="a_even_o" style="text;html=1;align=center;verticalAlign=middle;resizable=0;points=[];autosize=1;strokeColor=none;fillColor=none;fontSize=60;strokeWidth=9;" vertex="1" parent="1">
                    <mxGeometry x="4710" y="777" width="290" height="90" as="geometry"/>
                </mxCell>
                <mxCell id="63" style="edgeStyle=none;html=1;strokeWidth=9;fontSize=60;" edge="1" parent="1" source="31" target="66">
                    <mxGeometry relative="1" as="geometry">
                        <mxPoint x="5550" y="1110" as="targetPoint"/>
                    </mxGeometry>
                </mxCell>
                <mxCell id="31" value="a_odd_o" style="text;html=1;align=center;verticalAlign=middle;resizable=0;points=[];autosize=1;strokeColor=none;fillColor=none;fontSize=60;strokeWidth=9;" vertex="1" parent="1">
                    <mxGeometry x="4725" y="1052" width="260" height="90" as="geometry"/>
                </mxCell>
                <mxCell id="32" value="" style="endArrow=block;html=1;strokeWidth=9;fontSize=60;entryX=0.5;entryY=1;entryDx=0;entryDy=0;endFill=1;exitX=0.994;exitY=0.467;exitDx=0;exitDy=0;exitPerimeter=0;" edge="1" parent="1" source="27" target="22">
                    <mxGeometry width="50" height="50" relative="1" as="geometry">
                        <mxPoint x="2685" y="1097" as="sourcePoint"/>
                        <mxPoint x="3275" y="1077" as="targetPoint"/>
                        <Array as="points">
                            <mxPoint x="3085" y="1097"/>
                        </Array>
                    </mxGeometry>
                </mxCell>
                <mxCell id="33" style="edgeStyle=none;html=1;exitX=1;exitY=0.5;exitDx=0;exitDy=0;strokeWidth=9;fontSize=60;endArrow=block;endFill=1;" edge="1" parent="1" source="34" target="30">
                    <mxGeometry relative="1" as="geometry">
                        <mxPoint x="4686.610000000001" y="817.4200000000001" as="targetPoint"/>
                    </mxGeometry>
                </mxCell>
                <mxCell id="34" value="" style="shape=sumEllipse;perimeter=ellipsePerimeter;whiteSpace=wrap;html=1;backgroundOutline=1;strokeWidth=9;fontSize=60;" vertex="1" parent="1">
                    <mxGeometry x="3585" y="777" width="80" height="80" as="geometry"/>
                </mxCell>
                <mxCell id="35" style="edgeStyle=none;html=1;exitX=1;exitY=0.5;exitDx=0;exitDy=0;entryX=0;entryY=0.5;entryDx=0;entryDy=0;strokeWidth=9;fontSize=60;endArrow=block;endFill=1;" edge="1" parent="1" source="22" target="34">
                    <mxGeometry relative="1" as="geometry"/>
                </mxCell>
                <mxCell id="36" value="" style="shape=sumEllipse;perimeter=ellipsePerimeter;whiteSpace=wrap;html=1;backgroundOutline=1;strokeWidth=9;fontSize=60;" vertex="1" parent="1">
                    <mxGeometry x="3585" y="1057" width="80" height="80" as="geometry"/>
                </mxCell>
                <mxCell id="37" style="edgeStyle=none;html=1;exitX=1;exitY=0.5;exitDx=0;exitDy=0;entryX=0;entryY=0.5;entryDx=0;entryDy=0;strokeWidth=9;fontSize=60;endArrow=block;endFill=1;" edge="1" parent="1" source="23" target="36">
                    <mxGeometry relative="1" as="geometry"/>
                </mxCell>
                <mxCell id="38" style="edgeStyle=none;html=1;exitX=1;exitY=0.5;exitDx=0;exitDy=0;entryX=0;entryY=0.5;entryDx=0;entryDy=0;strokeWidth=9;fontSize=60;" edge="1" parent="1" source="39" target="49">
                    <mxGeometry relative="1" as="geometry"/>
                </mxCell>
                <mxCell id="39" value="" style="shape=sumEllipse;perimeter=ellipsePerimeter;whiteSpace=wrap;html=1;backgroundOutline=1;strokeWidth=9;fontSize=60;" vertex="1" parent="1">
                    <mxGeometry x="3815" y="1057" width="80" height="80" as="geometry"/>
                </mxCell>
                <mxCell id="40" style="edgeStyle=none;html=1;entryX=0.5;entryY=0;entryDx=0;entryDy=0;strokeWidth=9;fontSize=60;endArrow=block;endFill=1;" edge="1" parent="1" source="41" target="34">
                    <mxGeometry relative="1" as="geometry">
                        <Array as="points">
                            <mxPoint x="3625" y="682"/>
                        </Array>
                    </mxGeometry>
                </mxCell>
                <mxCell id="41" value="1/2" style="text;html=1;align=center;verticalAlign=middle;resizable=0;points=[];autosize=1;strokeColor=none;fillColor=none;fontSize=60;strokeWidth=9;" vertex="1" parent="1">
                    <mxGeometry x="3435" y="637" width="110" height="90" as="geometry"/>
                </mxCell>
                <mxCell id="42" style="edgeStyle=none;html=1;entryX=0.5;entryY=1;entryDx=0;entryDy=0;strokeWidth=9;fontSize=60;endArrow=block;endFill=1;" edge="1" parent="1" source="43" target="36">
                    <mxGeometry relative="1" as="geometry">
                        <Array as="points">
                            <mxPoint x="3625" y="1222"/>
                        </Array>
                    </mxGeometry>
                </mxCell>
                <mxCell id="43" value="1/2" style="text;html=1;align=center;verticalAlign=middle;resizable=0;points=[];autosize=1;strokeColor=none;fillColor=none;fontSize=60;strokeWidth=9;" vertex="1" parent="1">
                    <mxGeometry x="3445" y="1177" width="110" height="90" as="geometry"/>
                </mxCell>
                <mxCell id="44" style="edgeStyle=none;html=1;entryX=0.5;entryY=1;entryDx=0;entryDy=0;strokeWidth=9;fontSize=60;endArrow=block;endFill=1;" edge="1" parent="1" source="45" target="39">
                    <mxGeometry relative="1" as="geometry">
                        <Array as="points">
                            <mxPoint x="3855" y="1222"/>
                        </Array>
                    </mxGeometry>
                </mxCell>
                <mxCell id="45" value="-zeta" style="text;html=1;align=center;verticalAlign=middle;resizable=0;points=[];autosize=1;strokeColor=none;fillColor=none;fontSize=60;strokeWidth=9;" vertex="1" parent="1">
                    <mxGeometry x="3660" y="1177" width="160" height="90" as="geometry"/>
                </mxCell>
                <mxCell id="46" style="edgeStyle=none;html=1;exitX=1;exitY=0.5;exitDx=0;exitDy=0;entryX=0;entryY=0.5;entryDx=0;entryDy=0;strokeWidth=9;fontSize=60;endArrow=block;endFill=1;" edge="1" parent="1" source="36" target="39">
                    <mxGeometry relative="1" as="geometry"/>
                </mxCell>
                <mxCell id="47" style="edgeStyle=none;html=1;entryX=0.629;entryY=1.11;entryDx=0;entryDy=0;entryPerimeter=0;strokeWidth=9;fontSize=60;endArrow=block;endFill=1;" edge="1" parent="1" source="28" target="45">
                    <mxGeometry relative="1" as="geometry">
                        <Array as="points">
                            <mxPoint x="3753" y="1327"/>
                        </Array>
                    </mxGeometry>
                </mxCell>
                <mxCell id="48" style="edgeStyle=none;html=1;exitX=1;exitY=0.5;exitDx=0;exitDy=0;strokeWidth=9;fontSize=60;" edge="1" parent="1" source="49" target="31">
                    <mxGeometry relative="1" as="geometry"/>
                </mxCell>
                <mxCell id="49" value="dili_montgomery_reduce" style="rounded=1;whiteSpace=wrap;html=1;strokeWidth=9;fontSize=47;" vertex="1" parent="1">
                    <mxGeometry x="3975" y="1004.5" width="540" height="185" as="geometry"/>
                </mxCell>
                <mxCell id="55" style="edgeStyle=none;html=1;strokeWidth=9;fontSize=60;" edge="1" parent="1" source="52" target="9">
                    <mxGeometry relative="1" as="geometry"/>
                </mxCell>
                <mxCell id="52" value="data_even" style="text;html=1;align=center;verticalAlign=middle;resizable=0;points=[];autosize=1;strokeColor=none;fillColor=none;fontSize=60;strokeWidth=9;" vertex="1" parent="1">
                    <mxGeometry x="-560" y="780" width="300" height="90" as="geometry"/>
                </mxCell>
                <mxCell id="56" style="edgeStyle=none;html=1;strokeWidth=9;fontSize=60;" edge="1" parent="1" source="53" target="11">
                    <mxGeometry relative="1" as="geometry"/>
                </mxCell>
                <mxCell id="53" value="data_odd" style="text;html=1;align=center;verticalAlign=middle;resizable=0;points=[];autosize=1;strokeColor=none;fillColor=none;fontSize=60;strokeWidth=9;" vertex="1" parent="1">
                    <mxGeometry x="-555" y="1230" width="270" height="90" as="geometry"/>
                </mxCell>
                <mxCell id="58" style="edgeStyle=none;html=1;strokeWidth=9;fontSize=60;" edge="1" parent="1" source="57" target="13">
                    <mxGeometry relative="1" as="geometry"/>
                </mxCell>
                <mxCell id="59" style="edgeStyle=none;html=1;strokeWidth=9;fontSize=60;" edge="1" parent="1" source="57" target="28">
                    <mxGeometry relative="1" as="geometry">
                        <Array as="points">
                            <mxPoint x="-40" y="1470"/>
                            <mxPoint x="-40" y="1750"/>
                            <mxPoint x="2795" y="1760"/>
                        </Array>
                    </mxGeometry>
                </mxCell>
                <mxCell id="57" value="zeta" style="text;html=1;align=center;verticalAlign=middle;resizable=0;points=[];autosize=1;strokeColor=none;fillColor=none;fontSize=60;strokeWidth=9;" vertex="1" parent="1">
                    <mxGeometry x="-515" y="1425" width="140" height="90" as="geometry"/>
                </mxCell>
                <mxCell id="62" value="data_out_1" style="text;html=1;align=center;verticalAlign=middle;resizable=0;points=[];autosize=1;strokeColor=none;fillColor=none;fontSize=60;" vertex="1" parent="1">
                    <mxGeometry x="5550" y="772" width="320" height="90" as="geometry"/>
                </mxCell>
                <mxCell id="66" value="data_out_2" style="text;html=1;align=center;verticalAlign=middle;resizable=0;points=[];autosize=1;strokeColor=none;fillColor=none;fontSize=60;" vertex="1" parent="1">
                    <mxGeometry x="5540" y="1052" width="320" height="90" as="geometry"/>
                </mxCell>
                <mxCell id="68" style="edgeStyle=none;html=1;strokeWidth=9;fontSize=60;" edge="1" parent="1" source="14" target="70">
                    <mxGeometry relative="1" as="geometry">
                        <mxPoint x="5510" y="1630" as="targetPoint"/>
                        <Array as="points">
                            <mxPoint x="2450" y="1020"/>
                            <mxPoint x="2300" y="1020"/>
                            <mxPoint x="2300" y="1610"/>
                        </Array>
                    </mxGeometry>
                </mxCell>
                <mxCell id="70" value="data_debug_1" style="text;html=1;align=center;verticalAlign=middle;resizable=0;points=[];autosize=1;strokeColor=none;fillColor=none;fontSize=60;strokeWidth=9;" vertex="1" parent="1">
                    <mxGeometry x="5570" y="1590" width="410" height="90" as="geometry"/>
                </mxCell>
                <mxCell id="71" value="data_debug_2" style="text;html=1;align=center;verticalAlign=middle;resizable=0;points=[];autosize=1;strokeColor=none;fillColor=none;fontSize=60;strokeWidth=9;" vertex="1" parent="1">
                    <mxGeometry x="5570" y="1800" width="410" height="90" as="geometry"/>
                </mxCell>
            </root>
        </mxGraphModel>
    </diagram>
</mxfile>